<svg width="146" height="16" viewBox="0 0 146 16" fill="none" xmlns="http://www.w3.org/2000/svg">
<path d="M97.4307 0C99.0383 0 100.245 0.436726 100.996 1.29297C101.73 2.13168 102.114 3.28504 102.114 4.71777C102.114 5.81852 101.835 6.76221 101.293 7.49609C100.804 8.16002 100.122 8.61493 99.2314 8.89453C99.406 9.03425 99.5632 9.19147 99.668 9.34863C99.8427 9.59327 100 9.90778 100.192 10.3271L102.394 15.4297H100.104L98.0078 10.624C97.8156 10.2048 97.5883 9.89053 97.3438 9.71582C97.0991 9.54108 96.6269 9.4541 95.9629 9.4541H93.0449V15.4121H90.8262V0H97.4307ZM7.14355 0C8.82109 0 10.08 0.472193 10.8838 1.38086C11.6873 2.27196 12.0888 3.45998 12.0889 4.89258C12.0889 6.36033 11.6351 7.53147 10.7266 8.3877C9.83538 9.24393 8.59436 9.68066 7.05664 9.68066H3.00293V15.4121H0.800781V0H7.14355ZM15.707 6.58789H23.0635V0H25.2822V15.4121H23.0635V8.3877H15.707V15.4121H13.4873V0H15.707V6.58789ZM33.582 0C35.9235 3.40594e-05 37.6883 0.629263 38.8066 1.83496C39.9249 3.07561 40.5019 5.03255 40.502 7.68848C40.502 10.3446 39.925 12.3198 38.8066 13.543C37.6708 14.7835 35.9234 15.4121 33.582 15.4121C31.258 15.4121 29.5099 14.8012 28.374 13.5605C27.2557 12.3199 26.6797 10.3622 26.6797 7.70605C26.6797 5.05029 27.2384 3.07575 28.374 1.85254C29.5099 0.629335 31.2579 0 33.582 0ZM53.1191 1.83496H48.2607V15.4121H46.0596V1.83496H41.2012V0H53.1191V1.83496ZM60.7373 0C63.0789 0 64.8436 0.629438 65.9619 1.87012C67.0802 3.09329 67.6572 5.06749 67.6572 7.68848C67.6572 10.3446 67.0803 12.3198 65.9619 13.543C64.8261 14.7834 63.0787 15.4121 60.7373 15.4121C58.4135 15.4121 56.6661 14.801 55.5303 13.5605C54.4119 12.3199 53.835 10.3622 53.835 7.70605C53.835 5.05002 54.3945 3.07572 55.5303 1.85254C56.6661 0.629343 58.4132 7.67418e-06 60.7373 0ZM105.714 9.68066C105.714 10.9563 106.081 11.9002 106.78 12.5293C107.497 13.1582 108.528 13.4726 109.838 13.4727C111.131 13.4727 112.145 13.1584 112.861 12.5293C113.578 11.9177 113.927 10.9563 113.927 9.68066H113.944V0H116.146V9.66309C116.146 11.5152 115.587 12.9658 114.504 13.9443C113.42 14.9229 111.847 15.4121 109.838 15.4121C107.811 15.4121 106.239 14.9228 105.155 13.9443C104.054 12.9658 103.513 11.5154 103.513 9.66309V0H105.714V9.68066ZM119.746 9.68066C119.746 10.9563 120.114 11.9002 120.812 12.5293C121.529 13.1582 122.56 13.4726 123.87 13.4727C125.163 13.4727 126.177 13.1584 126.894 12.5293C127.61 11.9177 127.959 10.9563 127.959 9.68066H127.977V0H130.179V9.66309C130.179 11.5152 129.619 12.9658 128.536 13.9443C127.453 14.9229 125.88 15.4121 123.87 15.4121C121.843 15.4121 120.271 14.9228 119.188 13.9443C118.087 12.9658 117.545 11.5154 117.545 9.66309V0H119.746V9.68066ZM86.5293 1.39746L83.873 4.05371C85.638 6.50012 85.3759 9.90827 83.2266 12.0576L82.9473 12.3369L81.5488 10.9385L81.8291 10.6592C83.1918 9.29624 83.4537 7.12977 82.4404 5.4873L72.5498 15.377L71.1523 13.9795L73.8076 11.3232C72.043 8.87686 72.3058 5.46957 74.4551 3.32031L74.7344 3.04102L76.1318 4.43848L75.8525 4.71777C74.4895 6.08077 74.2277 8.24804 75.2412 9.89062L85.1318 0L86.5293 1.39746ZM138.688 9.92578L143.529 0H145.801V15.3076H143.616V3.84473L139.423 12.4238H137.973L137.92 12.3193L133.761 3.84473V15.3076H131.577V0H133.849L138.688 9.92578ZM33.582 1.93945C32.5161 1.93945 31.6073 2.11448 30.9258 2.48145C30.2618 2.84841 29.7372 3.44238 29.3877 4.26367C29.0382 5.10241 28.8633 6.27325 28.8633 7.70605C28.8633 9.13879 29.0383 10.3097 29.3877 11.1484C29.7372 11.9697 30.2443 12.5812 30.9258 12.9307C31.6248 13.2802 32.5161 13.4727 33.582 13.4727C34.6479 13.4726 35.5568 13.2976 36.2383 12.9307C36.9196 12.5811 37.4434 11.9696 37.7754 11.1484C38.1249 10.2922 38.2998 9.13891 38.2998 7.70605C38.2998 6.27322 38.1249 5.10241 37.7754 4.26367C37.426 3.44258 36.9196 2.83093 36.2383 2.48145C35.5393 2.13198 34.6479 1.93948 33.582 1.93945ZM60.7373 1.93945C59.6714 1.93946 58.7625 2.11449 58.0811 2.48145C57.3997 2.84838 56.8934 3.44257 56.5439 4.26367C56.1945 5.10241 56.0195 6.27322 56.0195 7.70605C56.0195 9.13894 56.1945 10.3097 56.5439 11.1484C56.8934 11.9696 57.3997 12.5812 58.0811 12.9307C58.78 13.2801 59.6714 13.4727 60.7373 13.4727C61.8032 13.4727 62.7121 13.2976 63.3936 12.9307C64.0749 12.5812 64.5997 11.9696 64.9316 11.1484C65.281 10.2922 65.4551 9.13877 65.4551 7.70605C65.4551 6.27328 65.2811 5.10241 64.9316 4.26367C64.5822 3.44243 64.075 2.83094 63.3936 2.48145C62.6946 2.13196 61.8032 1.93945 60.7373 1.93945ZM3.00293 7.88086H6.74219C7.77311 7.88084 8.55978 7.60136 9.08398 7.07715C9.60811 6.53546 9.87012 5.80115 9.87012 4.89258C9.87008 3.91413 9.62498 3.14528 9.13574 2.62109C8.64645 2.09699 7.87765 1.83496 6.86426 1.83496H3.00293V7.88086ZM93.0449 7.65332H96.9072C97.8505 7.65326 98.6018 7.40923 99.126 6.95508C99.6502 6.50075 99.9121 5.74876 99.9121 4.71777C99.912 2.77832 99.0036 1.83496 97.1514 1.83496H93.0449V7.65332Z" fill="#26272D"/>
</svg>
